<svg width="122" height="90" viewBox="0 0 122 90" fill="none" xmlns="http://www.w3.org/2000/svg">
<g clip-path="url(#clip0_151_578)">
<path d="M42.8705 4.20103C46.3612 7.00598 48.6167 10.7772 49.6371 15.555H38.9367C38.1446 13.6224 36.9363 12.1059 35.2984 11.0054C33.6604 9.90488 31.7271 9.35462 29.4716 9.35462C26.5179 9.35462 24.1281 10.4417 22.3156 12.6025C20.5031 14.7766 19.5902 17.6621 19.5902 21.2857C19.5902 24.9093 20.5031 27.7948 22.3156 29.9422C24.1281 32.0895 26.5179 33.1632 29.4716 33.1632C31.7137 33.1632 33.6604 32.6129 35.2984 31.5124C36.9363 30.4119 38.1446 28.9088 38.9367 27.0164H49.6371C48.6167 31.7405 46.3612 35.5118 42.8705 38.3302C39.3798 41.1485 34.9761 42.5577 29.6595 42.5577C25.6049 42.5577 22.0337 41.6585 18.9592 39.8736C15.8847 38.0752 13.5083 35.5655 11.8301 32.3311C10.1519 29.0966 9.31948 25.4193 9.31948 21.2723C9.31948 17.1253 10.1519 13.448 11.8301 10.2136C13.5083 6.97914 15.8847 4.46945 18.9592 2.67106C22.0337 0.872667 25.6049 -0.0131073 29.6595 -0.0131073C34.9761 -0.0131073 39.3932 1.38266 42.8705 4.18761V4.20103Z" fill="white"/>
<path d="M81.2168 34.5724H65.5489L62.9443 42.1954H52.2977L67.6165 0.71167H79.2701L94.5889 42.2088H83.8214L81.2168 34.5858V34.5724ZM78.6122 26.8957L73.403 11.5289L68.1401 26.8957H78.6122Z" fill="white"/>
<path d="M47.0036 48.5024V89.9996H36.894V64.0571L27.9122 89.9996H19.1586L10.1096 63.99V89.9996H0V48.5024H12.3517L23.6428 77.4109L34.7056 48.5024H47.0036Z" fill="white"/>
<path d="M62.9683 75.3444V89.9999H52.8587V48.2075H69.2382C74.2057 48.2075 77.9918 49.4422 80.5964 51.8982C83.201 54.3677 84.5033 57.6826 84.5033 61.8565C84.5033 64.4601 83.926 66.7685 82.7579 68.8085C81.5899 70.835 79.8714 72.4321 77.589 73.5997C75.3066 74.7673 72.5275 75.3444 69.2516 75.3444H62.9818H62.9683ZM74.2057 61.8565C74.2057 58.1926 72.1784 56.354 68.1104 56.354H62.9683V67.2248H68.1104C72.165 67.2248 74.2057 65.4399 74.2057 61.8431V61.8565Z" fill="white"/>
<path d="M111.906 22.5061H122.002L104.481 67.9356H94.573L111.906 22.5061Z" fill="#8FC3C1"/>
</g>
<defs>
<clipPath id="clip0_151_578">
<rect width="122" height="90" fill="white"/>
</clipPath>
</defs>
</svg>
